<mxfile host="app.diagrams.net" modified="2024-01-03T04:58:15.614Z" agent="Mozilla/5.0 (Windows NT 10.0; Win64; x64) AppleWebKit/537.36 (KHTML, like Gecko) Chrome/120.0.0.0 Safari/537.36 Edg/120.0.0.0" version="22.1.16" etag="b0NZDV4BJB-pOdEf_v5I" type="github">
  <diagram name="Trang-1" id="MuNiOo0sUYLQZor9aALS">
    <mxGraphModel>
      <root>
        <mxCell id="0" />
        <mxCell id="1" parent="0" />
      </root>
    </mxGraphModel>
  </diagram>
</mxfile>
